<svg version="1" xmlns="http://www.w3.org/2000/svg" xmlns:xlink="http://www.w3.org/1999/xlink" viewBox="0 0 150 150"><path fill="#18AD9A" d="M94.5 52c2.3-6.4 5.5-11.3 10-15.7 1.5-11.4-1.8-23.4-11.3-29.5-3.6 6-7.3 14.4-9.4 23 7.6 4.9 11.5 13.4 10.7 22.2z"/><path fill="#FDC369" d="M121.7 22.5C103.4 34 94.4 41.9 91.1 65.3l.6.1c.1-.7.2-1.3.3-2 2 2.8 5.8 4.4 10.9 4.6 7.7.3 15.8-2.8 19.4-7.4 5.9-7.7 3.7-18.3 1.7-27.7-.8-3.6-1.5-7.1-1.8-10.2v-.5l-.5.3zM92.1 62.3c3.6-20.6 12.4-28.4 29.5-39.1.3 3.1 1 6.4 1.7 9.8 1.4 6.6 2.8 13.4 1.8 19.4-.5 2.8-1.5 5.5-3.4 7.9-3.4 4.4-11.4 7.4-18.9 7.2-5.1-.2-8.9-1.8-10.7-4.6l-.1.1c.1-.2.1-.5.1-.7z"/><path fill="#FDC369" d="M94.1 69.9l.3.4c8.7-6.9 16.6-9 24.8-6.7 3.8 1.1 7.5 3.2 11.2 5.2 4.3 2.4 8.7 4.9 13.2 5.6-6.4 12.6-13.1 16.4-26.6 15-12.7-1.3-20.6-5-20.9-18.9h-.6c.3 14.3 8.4 18.1 21.4 19.4 13.9 1.5 20.8-2.5 27.3-15.5l.2-.4-.4-.1c-4.6-.7-9.1-3.2-13.4-5.6-3.6-2.1-7.4-4.2-11.3-5.3-8.3-2.2-16.3-.1-25.2 6.9zM92.4 2.8c-7.7 13.1-17.8 39.3-6.7 54.9l.5-.3c-5.1-7.1-5.6-16.6-4-26 1.8-10.6 6.5-21.1 10.5-28 7.8 5.2 12.1 14.7 11.8 26.1-.1 2-.3 4.1-.6 6-1.8 10.6-7.5 19.7-15.4 24.1l.3.5c9.5-5.3 15.9-17.3 16.3-30.5.4-11.8-4.1-21.6-12.3-26.9l-.2-.2-.2.3z"/><path fill="#FED235" d="M79.6 49.6c2.8 4.9 3.5 11.3 1.7 16.7 1.5.8 3.1 1.7 4.6 2.6l-1.1 1.3c3.4-3.1 5.9-6.6 7.5-10.2.1-.3.1-.7.2-1-1 .8-2 1.5-3.1 2.1l-2.6-2.2c-5.6-7.9-5.5-18.8-3-29.2-4.7-3.1-10.7-4.8-17.9-4.4-1 3.1-1.7 7-1.9 11 6.2 3.6 12.4 7.6 15.6 13.3z"/><path fill="#FED235" d="M86.8 58.9l2.6 2.2c1.1-.6 2.1-1.3 3.1-2.1.5-2.5 1.2-4.9 1.9-7 .8-8.8-3.1-17.3-10.7-22.2-2.4 10.4-2.5 21.2 3.1 29.1z"/><path fill="#FCB31C" d="M65.6 51.5c2.5 2.7 4.6 5.5 6.2 8.6 2.8 2.4 6.1 4.3 9.5 6.1 1.8-5.4 1.1-11.8-1.7-16.7-3.2-5.7-9.4-9.7-15.6-13.2-.4 5.4 0 11 1.6 15.2z"/><path fill="#FED235" d="M92.8 58.7c-.2.4-.3.9-.5 1.3-.3 1.7-.7 3.5-.9 5.4l.5-2.2c1.3 1.9 3.5 3.2 6.1 3.9 6.1-3.9 12.7-5.8 20.1-3.7h.1c1.1-.8 2.1-1.7 2.9-2.7 7.9-10.1.9-25.3-.1-36.7-6.9 4.3-12.3 8.1-16.6 12.2-1.1 8.9-5.2 17.3-11.6 22.5z"/><path fill="#18AD9A" d="M141.7 73.8c-8-1.2-15.4-8.1-23.4-10.4-5.3 3.8-14.1 5.4-20.3 3.7-1.3.8-2.5 1.7-3.7 2.7l1.5.4c0 1.8.2 3.4.5 4.9 9.6.8 14.2 6.7 19.4 13.3h.2c13.3 1.4 19.8-2.6 25.8-14.6z"/><path fill="#F7922F" d="M96.3 75h-3v.2c.1.2.3.3.4.5l-.4-.2v.2c6.7 5.2 8.2 12.1 7.8 19.5.5.4 1 .8 1.6 1.1 7 4.2 13.5 1.5 21 1.2-3.2-2.9-5.7-6.1-8.1-9.1-10.2-1.2-17.4-3.9-19.3-13.4z"/><path fill="#F7922F" d="M96.3 75c1.9 9.5 9.1 12.2 19.4 13.3-5.2-6.5-9.8-12.5-19.4-13.3z"/><path fill="#FFDA96" d="M93.4 75.6c-.3-.2-.6-.4-.8-.6-.4 0-.7 0-1.1.1l.6-.4c-.2-.1-.3-.2-.4-.3l.5.3.4-.3c-4.8-4.2-10.8.9-13.8 6.7.2.2.5.4.6.6l-.9-.2c0 .1-.1.2-.1.3 3.9 5.4 5.5 11.1 5.5 16.7 5 3 11.5 4.7 15.6 8 .8-3.8 1.5-7.7 1.7-11.5-5.5-4.3-7.3-12.6-7.8-19.4zM65.6 51.5c-1.6-4.2-2-9.8-1.7-15.2-3.4-1.9-6.9-3.8-9.8-5.6-2 3.1-3.3 6-4.1 8.8 5.9 3.5 11.3 7.4 15.6 12z"/><path fill="#FED235" d="M52.6 95.5c.4-4 2.9-8.7 6.5-12.4-4.5-.8-8.7-2.5-12.8-5.1-5.8.9-11.7 3.3-15.8 5.6C19 90 15 101.7 8.4 112.1c9 4.9 25.9 3.4 34.8-1.3 4.4-2.3 7.4-4.9 9.7-7.7-.4-2.8-.5-5.4-.3-7.6z"/><path fill="#FDC369" d="M19.4 22.7c-4.5 14 4.4 36.6 15.3 47.4C46.7 81.9 59.1 86 73.8 83v.1l.6.1c0-.1 0-.2.1-.3.2-.1.5 0 .7-.1l-.1-.6c-.1 0-.3 0-.4.1.1-.6.3-1.3.4-1.9 5.3-30.5-26.7-45-50.3-55.7l-5.1-2.3-.3.3zm15.7 47c-10.1-10-18.4-29.9-16-43.8.2-1 .4-1.9.7-2.8.5.2 4.5 2.1 4.5 2.1 24.7 11.2 55.2 25 49.9 55-.1.7-.3 1.4-.4 2.1-14.5 3.1-26.8-.8-38.7-12.6z"/><path opacity=".48" fill="#FCB122" d="M53.8 30.5c-10.1 15.8-4.3 27.1 8.3 40.1l.5-.5c1.2.7 3.1 1.8 3.1 1.8l6.7 4.1h.2c4.2-1.6 7.3-4.7 8.9-9.2 2-5.5 1.4-12.2-1.6-17.4-3.8-6.7-11.5-11-18.9-15.1l-7-4.1-.2.3zm-4.1 11.7c.6-3.4 2.1-7.1 4.5-11 .6.4 6.4 3.7 6.4 3.7C68 39 75.5 43.2 79.2 49.7c2.3 4.1 3.1 9.1 2.3 13.7-.2 1.1-.5 2.1-.8 3.1-1.1 2.9-3.4 6.7-8.3 8.6-.4-.2-6.4-4-6.4-4l-4.3-2.4s-.1.1-.1.2C53.1 60 48.1 51.8 49.7 42.2z"/><path fill="#FDC369" d="M27.9 83.9c-9.5 5.2-14.2 13.6-19.2 22.6L3.8 115l.3.1c9.9 5.4 28.1 3.7 37.8-1.4 11.3-6 14.2-13.5 17.5-22.3l3.8-9.2-.5-.2-3.9 9.3c-3.4 9-6.2 16.1-17.3 22-9.2 4.9-27.3 6.5-37 1.5.3-.5 4.6-7.9 4.6-7.9C14 98 18.7 89.7 28 84.5c8.7-4.8 25.6-10.6 34-2.5l.4-.4c-8.7-8.3-25.8-2.5-34.5 2.3zM93 74c0 .3.1.5.1.8h-1.8v.6c.6-.1 1.2 0 1.8 0 .9 11.3 4.2 18.9 10 22.2 5.5 3.2 10.6 2.6 16.1 1.9l6.7-.6-.5-.4c-3.4-3.1-6-6.4-8.5-9.7-6-7.6-11.2-14.2-23.3-14 0-.3-.1-.5-.1-.8H93zm23.6 15.1c2.4 3.1 5 6.3 8.2 9.3-1 .1-5.6.5-5.6.5-5.3.7-10.4 1.3-15.7-1.8-5.6-3.3-8.8-10.7-9.7-21.8 11.8-.1 16.9 6.4 22.8 13.8z"/><path opacity=".48" fill="#FCB122" d="M46.1 59.5c1.1 8.1 5.5 15.3 11.7 19.3C63 82.2 68.9 83 75 81.2l-.2-.5c-5.9 1.7-11.7.9-16.7-2.3-6-3.9-10.2-10.8-11.3-18.5.7.2 2.9.7 2.9.7 9.9 2.3 24.8 5.8 23.8 18.5h.6C75.1 66 59.9 62.4 49.8 60l-3.7-.9v.4z"/><path fill="none" d="M92.5 75c.3.2.6.4.8.6v-.2l-.7-.4h-.1zM93.3 75.2V75h-.2c.1.1.2.1.2.2z"/><path fill="none" d="M91.9 63.2l-.5 2.2c.3-1.9.6-3.7.9-5.4-1.6 3.6-4.1 7.1-7.5 10.2l1.1-1.3c-1.5-.9-3.1-1.8-4.6-2.6-1.1 3.2-3.1 6-6.1 7.9 0 1.5-.1 3.1-.3 4.7 1 .6 2.1 1.4 3 2.5l.2.1-.6-.9c.5.1.9.3 1.2.5 3-5.8 9-10.9 13.8-6.7l.7-.4c0 .3 0 .7.1 1 1 0 2 0 2.9.1-.3-1.5-.5-3.1-.5-4.9l-1.5-.4c1.2-1 2.5-1.9 3.7-2.7-2.5-.7-4.7-2-6-3.9z"/><path fill="none" d="M78.4 81.8c0-.1.1-.2.1-.3l-.4-.1c.1.2.2.3.3.4zM91.6 74.4c.2.1.3.2.4.3l-.4-.3z"/><path fill="#F7922F" d="M61.5 81c4.1-3.2 9-4.6 13.3-2.1.2-1.6.3-3.2.3-4.7-.8.5-1.7 1-2.7 1.4-3.4-2.6-7.3-4.3-10.9-6.5l.8 1.2c-9.6-10-15.8-19.2-12.3-30.8-9-5.3-18.9-9.6-27.4-13.5-4.4 13.7 4.7 35 14.5 44.7 3 3 6.1 5.4 9.2 7.4 5.6-.9 11.2-.4 15.2 2.9z"/><path fill="#FFDA96" d="M81.2 66.3c-3.4-1.9-6.7-3.7-9.5-6.1 2.2 4.2 3.4 8.9 3.4 14.1 3.1-2 5.1-4.8 6.1-8zM71.8 60.1c-1.6-3.1-3.7-6-6.2-8.6 1.5 3.7 3.6 6.4 6.2 8.6z"/><path fill="#FED235" d="M94.5 52c-.2 2.2-.8 4.5-1.6 6.7 6.4-5.2 10.4-13.7 11.6-22.5-4.6 4.5-7.8 9.4-10 15.8zM92.5 59c-.1.3-.1.7-.2 1 .2-.4.4-.9.5-1.3l-.3.3z"/><path fill="#FED235" d="M94.5 52c-.7 2.1-1.4 4.5-1.9 7l.3-.3c.8-2.2 1.3-4.5 1.6-6.7z"/><path fill="#18AD9A" d="M98 67.1c6.2 1.7 14.9.1 20.3-3.7h-.1c-7.5-2.1-14.1-.2-20.2 3.7z"/><path fill="#FED235" d="M61.5 81c-4-3.3-9.6-3.8-15.2-2.9 4 2.5 8.3 4.3 12.8 5.1.7-.8 1.6-1.6 2.4-2.2z"/><path fill="#F7922F" d="M92.5 74.4l.6.6h.2c0-.3 0-.7-.1-1l-.7.4zM92.1 74.7c.1.1.3.2.4.3h.1l-.5-.3z"/><path fill="#18AD9A" d="M78.1 81.4l.4.1c.1-.1.1-.3.2-.4-.4-.3-.8-.5-1.2-.5.2.3.4.5.6.8zM61.5 81c.2.2.5.4.7.6l.7.2c-.3.6-.6 1.3-.9 1.9 3.8.4 7.8.1 12.1-.8.3-1.3.5-2.6.7-3.9-4.3-2.6-9.2-1.2-13.3 2zM75 82.6c-.3.1-.6.1-.8.2 0 .1 0 .3-.1.4l.9-.6zM59.1 83.2c-3.5 3.6-6 8.4-6.5 12.4-.2 2.2-.1 4.8.3 7.6 4.4-5.5 5.8-12 9.2-19.5-1.1-.2-2.1-.3-3-.5z"/><path fill="#18AD9A" d="M62.2 81.5c-.2-.2-.5-.4-.7-.6-.9.7-1.7 1.4-2.5 2.2 1 .2 2 .3 3 .4.3-.6.6-1.2.9-1.9l-.7-.1z"/><path opacity=".48" fill="#FCB122" d="M92.6 75l.7.4v-.2c-.1-.1-.1-.2-.2-.2h-.5z"/><path fill="#F7922F" d="M91.4 75.1c.4 0 .7 0 1.1-.1-.2-.1-.3-.2-.4-.3l-.7.4z"/><path opacity=".48" fill="#FCB122" d="M91.4 75.1c.4 0 .7 0 1.1-.1-.2-.1-.3-.2-.4-.3l-.7.4z"/><path fill="#F7922F" d="M93.4 75.6c.6 6.7 2.3 15.1 7.8 19.5.4-7.4-1.1-14.3-7.8-19.5z"/><path opacity=".48" fill="#FCB122" d="M93.4 75.6c.6 6.7 2.3 15.1 7.8 19.5.4-7.4-1.1-14.3-7.8-19.5z"/><path fill="#F7922F" d="M93.7 75.7c-.1-.2-.3-.3-.4-.5v.2l.4.3z"/><path opacity=".48" fill="#FCB122" d="M93.7 75.7c-.1-.2-.3-.3-.4-.5v.2l.4.3z"/><path fill="#F7922F" d="M93.1 75l-.6-.6-.4.3.5.3h.5z"/><path opacity=".48" fill="#FCB122" d="M93.1 75l-.6-.6-.4.3.5.3h.5z"/><path fill="#18AD9A" d="M79.4 81.7c-.2-.3-.4-.5-.6-.6-.1.1-.1.3-.2.4l.8.2z"/><path opacity=".48" fill="#FCB122" d="M79.4 81.7c-.2-.3-.4-.5-.6-.6-.1.1-.1.3-.2.4l.8.2z"/><path fill="#18AD9A" d="M76.8 88c.2 5.1 3.1 8.2 7 10.5.1-5.6-1.6-11.3-5.5-16.7-.9 2.2-1.5 4.4-1.5 6.2z"/><path opacity=".48" fill="#FCB122" d="M76.8 88c.2 5.1 3.1 8.2 7 10.5.1-5.6-1.6-11.3-5.5-16.7-.9 2.2-1.5 4.4-1.5 6.2z"/><path opacity=".48" fill="#FCB122" d="M85.4 72.9c-4.9 1.8-9 9-8.8 13.5.2 7.2 6.5 10 12.5 12.6 2.9 1.3 5.7 2.5 7.8 4.2l.3.3.1-.4c.3-1.3.5-2.6.8-3.9 1.6-9.2 1.5-17.7-6.1-23.8.1-.1.2-.1.2-.1-2.4-3.1-5-3-6.8-2.4zm3.9 25.7c-5.9-2.6-12-5.2-12.2-12.2 0-.5 0-1.1.1-1.7.7-4.3 4.4-9.9 8.4-11.3 1.7-.6 3.2-.4 4.6.6l-.3.4c9.2 6 9.3 15 7.6 24.7-.2 1.2-.4 2.4-.7 3.5-2-1.6-4.7-2.8-7.5-4z"/><path fill="#18AD9A" d="M76.8 88c-.1-1.8.5-4.1 1.5-6.2-.1-.1-.2-.2-.3-.4l-.2-.1c-1-1.1-2-1.9-3-2.5-.2 1.3-.4 2.6-.7 3.9.3-.1.6-.1.8-.2l-.9.6c0-.1 0-.3.1-.4-4.3.9-8.3 1.2-12.1.8-3.3 7.5-4.8 14-9.2 19.5 1.5 10.1 6.2 22.9 10.2 30 11-8.1 20.7-21.1 20.9-34.5C80 96.2 77 93.1 76.8 88z"/><path fill="#FDC369" d="M65.8 77.9C58.2 80.4 51.7 89.6 51 96.2c-1.1 10.8 5.7 30 10.9 39.2l.2.3.3-.2c11.5-8.5 19.4-20.1 21.4-31.2.1-.4.1-.8.2-1.2 1.1-7.8-.9-15-5.7-21.6.3.2.6.2.9.5l.5-.3c-.6-.7-1.3-1.2-2.2-1.3 0 0-.6-.1-.7-.1-4.1-3.4-8.1-3.3-11-2.4zM51.6 96.3c0-.3.1-.6.1-.9 1.1-6.3 7.2-14.7 14.3-17 4.3-1.4 8.3-.3 11.4 3.3l.1-.1c4.8 6.5 6.8 13.7 5.8 21.4-.1.4-.1.8-.2 1.2-1.9 10.8-9.6 22.1-20.9 30.6-5.1-9.2-11.7-28-10.6-38.5z"/><path fill="#F47B20" d="M73.5 75.1c.6-.3 1.1-.6 1.7-.9 0-5.2-1.3-9.9-3.4-14.1-2.6-2.2-4.7-4.9-6.2-8.6-4.3-4.6-9.7-8.5-15.6-12-2.4 8.2-.1 15.2 4.8 22.1 8.2 2.1 17.1 5.5 18.7 13.5zM73.5 75.1c-.4.2-.7.3-1.1.5-3.4-2.6-7.3-4.3-10.9-6.5l.8 1.2c-2.9-3-5.4-5.9-7.5-8.8-3.1-.8-6-1.4-8.4-2C48.3 73.4 60.2 85.3 74.9 81l-1.2-1.9c.2-1.5.1-2.8-.2-4z"/><path fill="#F36B21" d="M61.6 69.1c3.6 2.2 7.5 4 10.9 6.5.4-.1.7-.3 1.1-.5-1.6-8-10.5-11.4-18.7-13.6 2.1 2.9 4.6 5.8 7.5 8.8l-.8-1.2z"/><path fill="#FDC369" d="M65.1 23.8h-.2l-.1.2c-.5 1.6-.9 3.5-1.3 5.5-1.2 7.1-1.3 15.7 1 21.5 3.1 8.1 9.6 11.7 16.4 15.5 0 0 3.9 2.2 4.3 2.5-.3.3-.6.7-1 1l.4.4C94.2 61.9 97.3 50 93 39.6c-4.4-10.4-15.1-16.5-27.9-15.8zm27.4 16c1.8 4.4 2.3 9 1.5 13.5-1 5.5-3.9 10.7-8.3 15.2-.2-.1-4.4-2.5-4.4-2.5-6.7-3.7-13.1-7.2-16.2-15.2-2.2-5.8-2.2-14.2-1-21.2.3-1.9.8-3.6 1.2-5.2 12.5-.6 22.9 5.3 27.2 15.4z"/></svg>